<?xml version="1.0" encoding="UTF-8"?>
<svg width="99px" height="75px" viewBox="0 0 99 75" version="1.1" xmlns="http://www.w3.org/2000/svg" xmlns:xlink="http://www.w3.org/1999/xlink">
    <!-- Generator: Sketch 55.2 (78181) - https://sketchapp.com -->
    <title>calendar</title>
    <desc>Created with Sketch.</desc>
    <g id="Job-Preferences-V1" stroke="none" stroke-width="1" fill="none" fill-rule="evenodd">
        <g id="job-preferences" transform="translate(-1219.000000, -174.000000)">
            <g id="luca-micheli-799250-unsplash" transform="translate(24.000000, 69.000000)">
                <g id="noun_Calendar_2816194" transform="translate(1172.000000, 71.000000)">
                    <g id="calendar" transform="translate(23.000000, 36.000000)">
                        <rect id="Rectangle-Copy-6" fill="#F2F3F6" x="4" y="8" width="95" height="65" rx="4"></rect>
                        <rect id="Rectangle" stroke="#6660AA" stroke-width="2" x="1" y="5" width="93" height="63" rx="4"></rect>
                        <g id="Group-12" transform="translate(12.000000, 19.000000)" stroke-width="2">
                            <rect id="Rectangle-Copy-8" stroke="#FF8300" fill-opacity="0.2" fill="#FF8300" x="31" y="-1" width="10" height="10" rx="1"></rect>
                            <rect id="Rectangle-Copy-9" stroke="#6660AA" fill="#E0DFEE" x="47" y="-1" width="10" height="10" rx="1"></rect>
                            <rect id="Rectangle-Copy-13" stroke="#6660AA" fill="#E0DFEE" x="-1" y="15" width="10" height="10" rx="1"></rect>
                            <rect id="Rectangle-Copy-12" stroke="#6660AA" fill="#E0DFEE" x="15" y="15" width="10" height="10" rx="1"></rect>
                            <rect id="Rectangle-Copy-11" stroke="#6660AA" fill="#E0DFEE" x="31" y="15" width="10" height="10" rx="1"></rect>
                            <rect id="Rectangle-Copy-10" stroke="#FF8300" fill-opacity="0.2" fill="#FF8300" x="47" y="15" width="10" height="10" rx="1"></rect>
                            <rect id="Rectangle-Copy-15" stroke="#6660AA" fill="#E0DFEE" x="63" y="-1" width="10" height="10" rx="1"></rect>
                            <rect id="Rectangle-Copy-14" stroke="#6660AA" fill="#E0DFEE" x="63" y="15" width="10" height="10" rx="1"></rect>
                            <rect id="Rectangle-Copy-20" stroke="#6660AA" fill="#E0DFEE" x="-1" y="31" width="10" height="10" rx="1"></rect>
                            <rect id="Rectangle-Copy-19" stroke="#FF8300" fill-opacity="0.2" fill="#FF8300" x="15" y="31" width="10" height="10" rx="1"></rect>
                            <rect id="Rectangle-Copy-18" stroke="#6660AA" fill="#E0DFEE" x="31" y="31" width="10" height="10" rx="1"></rect>
                            <rect id="Rectangle-Copy-17" stroke="#6660AA" fill="#E0DFEE" x="47" y="31" width="10" height="10" rx="1"></rect>
                        </g>
                        <rect id="Rectangle" stroke="#6660AA" stroke-width="2" fill="#E0DFEE" x="10" y="-1" width="4" height="12" rx="1"></rect>
                        <rect id="Rectangle-Copy" stroke="#6660AA" stroke-width="2" fill="#E0DFEE" x="27" y="-1" width="4" height="12" rx="1"></rect>
                        <rect id="Rectangle-Copy-3" stroke="#6660AA" stroke-width="2" fill="#E0DFEE" x="44" y="-1" width="4" height="12" rx="1"></rect>
                        <rect id="Rectangle-Copy-4" stroke="#6660AA" stroke-width="2" fill="#E0DFEE" x="77" y="-1" width="4" height="12" rx="1"></rect>
                        <rect id="Rectangle-Copy-5" stroke="#6660AA" stroke-width="2" fill="#E0DFEE" x="61" y="-1" width="4" height="12" rx="1"></rect>
                    </g>
                </g>
            </g>
        </g>
    </g>
</svg>