<?xml version="1.0" encoding="UTF-8"?>
<svg width="111px" height="65px" viewBox="0 0 111 65" version="1.1" xmlns="http://www.w3.org/2000/svg" xmlns:xlink="http://www.w3.org/1999/xlink">
    <!-- Generator: Sketch 55.2 (78181) - https://sketchapp.com -->
    <title>money</title>
    <desc>Created with Sketch.</desc>
    <g id="Job-Preferences-V1" stroke="none" stroke-width="1" fill="none" fill-rule="evenodd">
        <g id="job-preferences" transform="translate(-305.000000, -184.000000)">
            <g id="Group-9-Copy" transform="translate(305.000000, 184.000000)">
                <g id="money">
                    <g id="Group-26" transform="translate(47.931818, 16.800000)"></g>
                    <path d="M105.547226,45.36 C105.818772,47.1363332 105.954545,48.7944998 105.954545,50.3344998 C105.954545,51.8744998 105.818772,53.2963332 105.547226,54.6 C98.9645912,54.4609136 88.3579064,53.7162738 73.727172,52.3660806 C59.0964376,51.0158874 37.88435,48.8241406 10.0909091,45.7908404" id="Path-4" stroke="#7D81BE" stroke-width="2" stroke-linecap="round"></path>
                    <path d="M9.25,46.2 C23.0762661,50.0550927 37.4707347,53.3795077 52.4334059,56.1732451 C67.3960771,58.9669826 82.9940327,61.2425675 99.2272727,63 L99.2272727,57.900665" id="Path-5" stroke="#7D81BE" stroke-width="2" stroke-linecap="round"></path>
                    <path d="M5.2934725,35.12 L102.431818,5.37213149 L102.431818,3.52312047 C102.431818,2.99630539 102.023102,2.55983689 101.497426,2.52527427 C86.0293378,1.50842391 70.5546003,1 55.0731782,1 C39.4324008,1 22.2074814,1.5189427 3.39887942,2.55695501 C2.9111273,2.58387316 2.51420961,2.95923717 2.46013198,3.44473382 C1.48638068,12.1859171 1,18.6385306 1,22.786552 C1,26.6444847 1.42151143,30.4933816 2.26488651,34.3344551 C2.365605,34.7931681 2.77196998,35.1199912 3.24160237,35.12 L5.2934725,35.12 Z" id="Path-Copy" stroke="#7D81BE" stroke-width="2"></path>
                    <path d="M8.88383922,38.48 L105.795455,8.96594864 L105.795455,6.46893074 C105.795455,5.94744749 105.394716,5.51350923 104.874881,5.4720897 C95.5696073,4.73069821 86.2276455,4.36 76.8489335,4.36 C66.9980544,4.36 43.661341,4.76860729 6.84990346,5.58576963 C6.33079092,5.5972932 5.90686565,6.00419405 5.87409217,6.52240694 C5.42762324,13.5797438 5.20454545,18.7599163 5.20454545,22.0533937 C5.20454545,25.3404295 5.42675243,30.5068231 5.87147958,37.5430796 C5.90477247,38.0698234 6.34169659,38.4800028 6.8694936,38.48 L8.88383922,38.48 Z" id="Path" stroke="#7D81BE" stroke-width="2" fill="#FFFFFF"></path>
                    <path d="" id="Path-6" stroke="#979797"></path>
                    <path d="M9.48547309,9.18417371 C8.96703244,9.22720027 8.56817696,9.66053052 8.56818182,10.1807572 L8.56818182,44.2285031 C8.56818182,44.7603162 8.98441431,45.1990937 9.5154978,45.227113 C30.3925376,46.3290457 50.9303939,46.88 71.1290687,46.88 C90.0521173,46.88 102.508001,46.3954289 108.439865,45.4351333 C108.899266,45.3607619 109.246637,44.9793101 109.277811,44.5149714 C109.759398,37.3422755 110,31.8809121 110,28.1381605 C110,24.4034445 109.760534,18.4507234 109.281338,10.2893478 C109.250879,9.77058092 108.828156,9.36159691 108.308664,9.34829005 C87.7951395,8.82276552 66.8690106,8.56 45.5302852,8.56 C26.5173712,8.56 14.4884708,8.76896359 9.48547309,9.18417371 Z" id="Rectangle" stroke="#7D81BE" stroke-width="2" fill="#FFFFFF"></path>
                    <path d="M60.7988957,21.84 C57.2662986,21.9018721 55.5,23.0006864 55.5,25.1364431 C55.5,28.340078 61.3863636,25.9090098 61.3863636,28.6845504 C61.3863636,31.4600911 57.8481784,32.7107288 55.5,31.3950356" id="Path-3" stroke="#FF8300" stroke-width="2" stroke-linecap="round"></path>
                    <ellipse id="Oval" stroke="#FF8300" stroke-width="2" cx="58.4431818" cy="27.3" rx="9.67045455" ry="9.66"></ellipse>
                    <path d="M58.2056954,20.16 C58.481422,21.6191629 58.6371092,23.4754711 58.6727567,25.7289244 C58.7084043,27.9823778 58.6235867,30.6060696 58.418304,33.6" id="Path-12" stroke="#FF8300" stroke-width="2" stroke-linecap="round"></path>
                    <path d="M19.0479895,13.44 L13.4545455,13.44 L13.4545455,21.8644698 C16.3266083,22.6796311 17.7626398,24.3337668 17.7626398,26.826877 C17.7626398,29.3199872 16.3266083,30.6211188 13.4545455,30.7302719 L13.4545455,40.32 L21.8636364,40.32" id="Path-7" stroke="#FF8300" stroke-width="2" stroke-linecap="round"></path>
                    <path d="M102.297989,13.44 L96.7045455,13.44 L96.7045455,21.8644698 C99.5766083,22.6796311 101.01264,24.3337668 101.01264,26.826877 C101.01264,29.3199872 99.5766083,30.6211188 96.7045455,30.7302719 L96.7045455,40.32 L105.113636,40.32" id="Path-7-Copy" stroke="#FF8300" stroke-width="2" stroke-linecap="round" transform="translate(100.909091, 26.880000) scale(-1, 1) translate(-100.909091, -26.880000) "></path>
                    <path d="M24.3863636,40.74 L27.75,40.74" id="Path-8" stroke="#FF8300" stroke-width="2" stroke-linecap="round"></path>
                    <path d="M30.2727273,40.74 L50.4545455,40.74" id="Path-9" stroke="#FF8300" stroke-width="2" stroke-linecap="round"></path>
                    <path d="M54.6590909,40.74 L91.2315679,40.74" id="Path-9-Copy" stroke="#FF8300" stroke-width="2" stroke-linecap="round"></path>
                    <path d="M23.5454545,13.86 L28.5909091,13.86" id="Path-10" stroke="#FF8300" stroke-width="2" stroke-linecap="round"></path>
                    <path d="M31.1136364,13.86 L50.6647612,13.86" id="Path-11" stroke="#FF8300" stroke-width="2" stroke-linecap="round"></path>
                    <path d="M55.0713012,13.86 L95.8801248,13.86" id="Path-11-Copy" stroke="#FF8300" stroke-width="2" stroke-linecap="round"></path>
                </g>
            </g>
        </g>
    </g>
</svg>