<?xml version="1.0" encoding="UTF-8"?>
<svg width="139px" height="75px" viewBox="0 0 139 75" version="1.1" xmlns="http://www.w3.org/2000/svg" xmlns:xlink="http://www.w3.org/1999/xlink">
    <!-- Generator: Sketch 55.2 (78181) - https://sketchapp.com -->
    <title>mountain</title>
    <desc>Created with Sketch.</desc>
    <g id="Job-Preferences-V1" stroke="none" stroke-width="1" fill="none" fill-rule="evenodd">
        <g id="job-preferences" transform="translate(-105.000000, -162.000000)">
            <g id="Group-9" transform="translate(104.000000, 140.000000)">
                <g id="mountain" transform="translate(0.000000, 25.000000)">
                    <g id="Vector-11" transform="translate(99.861702, 30.766667)">
                        <path d="M19.2730367,3.34181867 C16.5188757,5.64927463 17.6785052,8.67777778 17.6785052,8.67777778 L45.9449656,8.53352848 C45.9449656,8.53352848 46.3795399,5.59949703 43.4804662,4.0380096 C40.5815153,2.47653031 37.8273543,4.7839822 37.8273543,4.7839822 C37.8273543,4.7839822 35.9428745,0.651477832 31.8841713,0.0746148596 C27.2455714,-0.584663342 25.2162198,3.34181867 25.2162198,3.34181867 C25.2162198,3.34181867 22.0271977,1.03438305 19.2730367,3.34181867 Z" id="Path" fill="#FFFFFF" fill-rule="nonzero"></path>
                        <path d="M13.7535484,9.24992023 L17.2034097,9.24992023 M17.2034097,9.24992023 C17.2034097,9.24992023 16.0261081,6.02174208 18.822241,3.56215115 C21.6183739,1.1025819 24.8559949,3.56215115 24.8559949,3.56215115 C24.8559949,3.56215115 26.9162727,-0.623211312 31.6255623,0.0795343597 C35.7461179,0.694431008 37.6593161,5.09939928 37.6593161,5.09939928 C37.6593161,5.09939928 40.455449,2.63981268 43.3985783,4.30424328 C46.3418323,5.96868255 45.9006353,9.0961603 45.9006353,9.0961603 M17.2034097,9.24992023 L45.9006353,9.0961603 M45.9006353,9.0961603 L49.1382979,9.0961603 M11.3683613,9.24992023 L8.86568055,9.24992023 M5.91544156,9.24992023 L4.2144066e-13,9.24992023" id="Shape" stroke="#D6D9E2" stroke-width="2" stroke-linecap="round"></path>
                    </g>
                    <path d="M0,63.3345928 C1.8921721,62.3775399 7.19036476,47.556734 9.5106383,50.7197832 C11.8309118,53.8828324 13.3721315,60.7947575 16.643617,55.4016259 C19.9151025,50.0084943 32.126046,29.1373775 36.7152093,29.1373775 C41.3043726,29.1373775 43.9336871,37.0543429 46.1174969,40.7940328 C48.3013067,44.5337228 56.736141,59.1958471 62.6628237,59.1958471 C68.5895627,59.1958471 74.0853417,50.5498554 76.7437991,45.9275505 C79.4022565,41.3052456 81.2724702,33.6498007 86.3751613,33.3807691 C91.4778523,33.1117375 104.846899,70.9230352 109.379102,70.9230352 C113.911304,70.9230352 116.700828,63.6796738 120.884269,63.3345928 C125.067711,62.9895118 130.296872,70.9230352 135.526596,70.9230352" id="Vector" stroke="#7D81BE" stroke-width="2" stroke-linecap="round"></path>
                    <path d="M21.8539074,47.6402571 C22.196453,48.4954147 23.9500524,50.7197832 25.8684802,50.7197832 C28.2664042,50.7197832 29.2941017,44.8558036 30.6643835,44.8558036 C32.0346653,44.8558036 32.7197786,48.1543106 35.1177579,48.1543106 C37.5157373,48.1543106 37.5157373,43.0233062 39.228548,43.0233062 C40.9414141,43.0233062 43.3393381,49.2537735 46.0799018,49.2537735 C48.2723194,49.2537735 49.2772075,47.5434584 49.5055786,46.6883009" id="Vector-2" stroke="#7D81BE" stroke-width="2" stroke-linecap="round"></path>
                    <path d="M72.7022574,53.1479229 C73.0688325,54.1255068 74.3154131,56.0800831 76.3680679,56.0800831 C78.9337383,56.0800831 81.1333076,51.6818428 82.5994896,51.6818428 C84.0656716,51.6818428 85.5318536,56.0800831 86.9980357,56.0800831 C88.4642177,56.0800831 89.9303997,53.1479229 91.7632754,53.1479229 C93.596151,53.1479229 93.6397032,58.4963549 96.1414163,58.4963549 C97.7290065,58.4963549 99.1603386,57.8140068 99.6490659,56.7145946" id="Vector-3" stroke="#7D81BE" stroke-width="2" stroke-linecap="round"></path>
                    <path d="M115.229502,68.0368564 C115.795868,68.9987219 117.267211,70.9230352 118.625501,70.9230352 C120.323501,70.9230352 120.66321,68.0368564 121.342081,68.0368564 C122.0215,68.0368564 122.700371,70.9230352 124.73808,70.9230352 C126.368028,70.9230352 127.45466,68.9987219 127.794369,68.0368564" id="Vector-4" stroke="#7D81BE" stroke-width="2" stroke-linecap="round"></path>
                    <path d="M18.2287234,6.48617304 C19.3291251,5.77101975 20.3482406,4.83279243 21.28607,3.67149109 C22.2238994,2.51018975 22.9507917,1.28635939 23.4667468,1.13686838e-13 C24.5289062,1.65093575 25.3877585,2.81685969 26.0433036,3.49777181 C26.6988487,4.17868393 27.702391,4.94722183 29.0539305,5.80338551 M35.3394909,19.1170537 C35.1066986,17.0688013 35.1299496,12.9722965 37.0854611,12.9722965 C39.0409725,12.9722965 39.995449,14.7929898 40.2282413,15.7033364 C40.4610335,16.6136831 40.9266745,12.9722965 42.3234845,12.9722965 C43.7202381,12.9722965 45.6991698,16.3860689 46.5140838,18.0929551 M52.3085106,5.54516868 C53.7052642,5.43140014 57.196866,4.38451251 59.9909375,1.10729763 C61.0383616,2.58659716 64.0412407,5.54516868 67.6728,5.54516868" id="Vector-5" stroke="#FF8300" stroke-width="2" stroke-linecap="round"></path>
                    <path d="M4.83722728,55.0676103 C5.72151376,56.1867701 6.39687378,56.74635 6.86330733,56.74635 C7.56295765,56.74635 7.1989303,54.5456687 8.45759128,54.5456687 C8.93978098,54.5456687 9.35411818,55.8849678 9.87937831,55.8849678 C11.2013016,55.8849678 11.0987341,55.0676103 11.7589827,55.0676103" id="Path-2" stroke="#7D81BE" stroke-width="2"></path>
                </g>
            </g>
        </g>
    </g>
</svg>